<mxfile host="app.diagrams.net" modified="2023-09-07T13:24:27.672Z" agent="Mozilla/5.0 (X11; Linux x86_64) AppleWebKit/537.36 (KHTML, like Gecko) Chrome/116.0.0.0 Safari/537.36" etag="iD_I9GaDzTjAjzbz4aTl" version="21.6.5" type="device">
  <diagram name="Page-1" id="rL--ldUjZZgMaLjQoNrf">
    <mxGraphModel dx="1420" dy="694" grid="1" gridSize="10" guides="1" tooltips="1" connect="1" arrows="1" fold="1" page="1" pageScale="1" pageWidth="827" pageHeight="1169" math="0" shadow="0">
      <root>
        <mxCell id="0" />
        <mxCell id="1" parent="0" />
        <mxCell id="H2WS7VCFzQZk60c3XtAe-1" value="quiz" style="swimlane;fontStyle=0;childLayout=stackLayout;horizontal=1;startSize=30;horizontalStack=0;resizeParent=1;resizeParentMax=0;resizeLast=0;collapsible=1;marginBottom=0;whiteSpace=wrap;html=1;" vertex="1" parent="1">
          <mxGeometry x="313" y="380" width="140" height="120" as="geometry" />
        </mxCell>
        <mxCell id="H2WS7VCFzQZk60c3XtAe-2" value="&lt;u&gt;code_quiz&lt;/u&gt;" style="text;strokeColor=none;fillColor=none;align=left;verticalAlign=middle;spacingLeft=4;spacingRight=4;overflow=hidden;points=[[0,0.5],[1,0.5]];portConstraint=eastwest;rotatable=0;whiteSpace=wrap;html=1;" vertex="1" parent="H2WS7VCFzQZk60c3XtAe-1">
          <mxGeometry y="30" width="140" height="30" as="geometry" />
        </mxCell>
        <mxCell id="H2WS7VCFzQZk60c3XtAe-3" value="title" style="text;strokeColor=none;fillColor=none;align=left;verticalAlign=middle;spacingLeft=4;spacingRight=4;overflow=hidden;points=[[0,0.5],[1,0.5]];portConstraint=eastwest;rotatable=0;whiteSpace=wrap;html=1;" vertex="1" parent="H2WS7VCFzQZk60c3XtAe-1">
          <mxGeometry y="60" width="140" height="30" as="geometry" />
        </mxCell>
        <mxCell id="H2WS7VCFzQZk60c3XtAe-4" value="description" style="text;strokeColor=none;fillColor=none;align=left;verticalAlign=middle;spacingLeft=4;spacingRight=4;overflow=hidden;points=[[0,0.5],[1,0.5]];portConstraint=eastwest;rotatable=0;whiteSpace=wrap;html=1;" vertex="1" parent="H2WS7VCFzQZk60c3XtAe-1">
          <mxGeometry y="90" width="140" height="30" as="geometry" />
        </mxCell>
        <mxCell id="H2WS7VCFzQZk60c3XtAe-43" style="edgeStyle=orthogonalEdgeStyle;rounded=0;orthogonalLoop=1;jettySize=auto;html=1;entryX=0.5;entryY=0;entryDx=0;entryDy=0;endArrow=none;endFill=0;" edge="1" parent="1" source="H2WS7VCFzQZk60c3XtAe-53" target="H2WS7VCFzQZk60c3XtAe-1">
          <mxGeometry relative="1" as="geometry" />
        </mxCell>
        <mxCell id="H2WS7VCFzQZk60c3XtAe-6" value="question" style="swimlane;fontStyle=0;childLayout=stackLayout;horizontal=1;startSize=30;horizontalStack=0;resizeParent=1;resizeParentMax=0;resizeLast=0;collapsible=1;marginBottom=0;whiteSpace=wrap;html=1;" vertex="1" parent="1">
          <mxGeometry x="313" y="150" width="140" height="120" as="geometry" />
        </mxCell>
        <mxCell id="H2WS7VCFzQZk60c3XtAe-7" value="&lt;u&gt;code_question&lt;/u&gt;" style="text;strokeColor=none;fillColor=none;align=left;verticalAlign=middle;spacingLeft=4;spacingRight=4;overflow=hidden;points=[[0,0.5],[1,0.5]];portConstraint=eastwest;rotatable=0;whiteSpace=wrap;html=1;" vertex="1" parent="H2WS7VCFzQZk60c3XtAe-6">
          <mxGeometry y="30" width="140" height="30" as="geometry" />
        </mxCell>
        <mxCell id="H2WS7VCFzQZk60c3XtAe-8" value="text" style="text;strokeColor=none;fillColor=none;align=left;verticalAlign=middle;spacingLeft=4;spacingRight=4;overflow=hidden;points=[[0,0.5],[1,0.5]];portConstraint=eastwest;rotatable=0;whiteSpace=wrap;html=1;" vertex="1" parent="H2WS7VCFzQZk60c3XtAe-6">
          <mxGeometry y="60" width="140" height="30" as="geometry" />
        </mxCell>
        <mxCell id="H2WS7VCFzQZk60c3XtAe-9" value="tip" style="text;strokeColor=none;fillColor=none;align=left;verticalAlign=middle;spacingLeft=4;spacingRight=4;overflow=hidden;points=[[0,0.5],[1,0.5]];portConstraint=eastwest;rotatable=0;whiteSpace=wrap;html=1;" vertex="1" parent="H2WS7VCFzQZk60c3XtAe-6">
          <mxGeometry y="90" width="140" height="30" as="geometry" />
        </mxCell>
        <mxCell id="H2WS7VCFzQZk60c3XtAe-10" value="answer" style="swimlane;fontStyle=0;childLayout=stackLayout;horizontal=1;startSize=30;horizontalStack=0;resizeParent=1;resizeParentMax=0;resizeLast=0;collapsible=1;marginBottom=0;whiteSpace=wrap;html=1;" vertex="1" parent="1">
          <mxGeometry x="613" y="180" width="140" height="90" as="geometry" />
        </mxCell>
        <mxCell id="H2WS7VCFzQZk60c3XtAe-11" value="&lt;u&gt;code_answer&lt;/u&gt;" style="text;strokeColor=none;fillColor=none;align=left;verticalAlign=middle;spacingLeft=4;spacingRight=4;overflow=hidden;points=[[0,0.5],[1,0.5]];portConstraint=eastwest;rotatable=0;whiteSpace=wrap;html=1;" vertex="1" parent="H2WS7VCFzQZk60c3XtAe-10">
          <mxGeometry y="30" width="140" height="30" as="geometry" />
        </mxCell>
        <mxCell id="H2WS7VCFzQZk60c3XtAe-12" value="text" style="text;strokeColor=none;fillColor=none;align=left;verticalAlign=middle;spacingLeft=4;spacingRight=4;overflow=hidden;points=[[0,0.5],[1,0.5]];portConstraint=eastwest;rotatable=0;whiteSpace=wrap;html=1;" vertex="1" parent="H2WS7VCFzQZk60c3XtAe-10">
          <mxGeometry y="60" width="140" height="30" as="geometry" />
        </mxCell>
        <mxCell id="H2WS7VCFzQZk60c3XtAe-46" style="edgeStyle=orthogonalEdgeStyle;rounded=0;orthogonalLoop=1;jettySize=auto;html=1;entryX=-0.007;entryY=0.233;entryDx=0;entryDy=0;entryPerimeter=0;endArrow=none;endFill=0;" edge="1" parent="1" source="H2WS7VCFzQZk60c3XtAe-55" target="H2WS7VCFzQZk60c3XtAe-3">
          <mxGeometry relative="1" as="geometry">
            <Array as="points">
              <mxPoint x="243" y="447" />
              <mxPoint x="243" y="447" />
            </Array>
          </mxGeometry>
        </mxCell>
        <mxCell id="H2WS7VCFzQZk60c3XtAe-15" value="user" style="swimlane;fontStyle=0;childLayout=stackLayout;horizontal=1;startSize=30;horizontalStack=0;resizeParent=1;resizeParentMax=0;resizeLast=0;collapsible=1;marginBottom=0;whiteSpace=wrap;html=1;" vertex="1" parent="1">
          <mxGeometry x="23" y="380" width="140" height="180" as="geometry" />
        </mxCell>
        <mxCell id="H2WS7VCFzQZk60c3XtAe-16" value="&lt;u&gt;code_user&lt;/u&gt;" style="text;strokeColor=none;fillColor=none;align=left;verticalAlign=middle;spacingLeft=4;spacingRight=4;overflow=hidden;points=[[0,0.5],[1,0.5]];portConstraint=eastwest;rotatable=0;whiteSpace=wrap;html=1;" vertex="1" parent="H2WS7VCFzQZk60c3XtAe-15">
          <mxGeometry y="30" width="140" height="30" as="geometry" />
        </mxCell>
        <mxCell id="H2WS7VCFzQZk60c3XtAe-17" value="firstname" style="text;strokeColor=none;fillColor=none;align=left;verticalAlign=middle;spacingLeft=4;spacingRight=4;overflow=hidden;points=[[0,0.5],[1,0.5]];portConstraint=eastwest;rotatable=0;whiteSpace=wrap;html=1;" vertex="1" parent="H2WS7VCFzQZk60c3XtAe-15">
          <mxGeometry y="60" width="140" height="30" as="geometry" />
        </mxCell>
        <mxCell id="H2WS7VCFzQZk60c3XtAe-18" value="lastname" style="text;strokeColor=none;fillColor=none;align=left;verticalAlign=middle;spacingLeft=4;spacingRight=4;overflow=hidden;points=[[0,0.5],[1,0.5]];portConstraint=eastwest;rotatable=0;whiteSpace=wrap;html=1;" vertex="1" parent="H2WS7VCFzQZk60c3XtAe-15">
          <mxGeometry y="90" width="140" height="30" as="geometry" />
        </mxCell>
        <mxCell id="H2WS7VCFzQZk60c3XtAe-47" value="email" style="text;strokeColor=none;fillColor=none;align=left;verticalAlign=middle;spacingLeft=4;spacingRight=4;overflow=hidden;points=[[0,0.5],[1,0.5]];portConstraint=eastwest;rotatable=0;whiteSpace=wrap;html=1;" vertex="1" parent="H2WS7VCFzQZk60c3XtAe-15">
          <mxGeometry y="120" width="140" height="30" as="geometry" />
        </mxCell>
        <mxCell id="H2WS7VCFzQZk60c3XtAe-48" value="password" style="text;strokeColor=none;fillColor=none;align=left;verticalAlign=middle;spacingLeft=4;spacingRight=4;overflow=hidden;points=[[0,0.5],[1,0.5]];portConstraint=eastwest;rotatable=0;whiteSpace=wrap;html=1;" vertex="1" parent="H2WS7VCFzQZk60c3XtAe-15">
          <mxGeometry y="150" width="140" height="30" as="geometry" />
        </mxCell>
        <mxCell id="H2WS7VCFzQZk60c3XtAe-19" value="tag" style="swimlane;fontStyle=0;childLayout=stackLayout;horizontal=1;startSize=30;horizontalStack=0;resizeParent=1;resizeParentMax=0;resizeLast=0;collapsible=1;marginBottom=0;whiteSpace=wrap;html=1;" vertex="1" parent="1">
          <mxGeometry x="663" y="395" width="140" height="90" as="geometry" />
        </mxCell>
        <mxCell id="H2WS7VCFzQZk60c3XtAe-20" value="&lt;u&gt;code_tag&lt;/u&gt;" style="text;strokeColor=none;fillColor=none;align=left;verticalAlign=middle;spacingLeft=4;spacingRight=4;overflow=hidden;points=[[0,0.5],[1,0.5]];portConstraint=eastwest;rotatable=0;whiteSpace=wrap;html=1;" vertex="1" parent="H2WS7VCFzQZk60c3XtAe-19">
          <mxGeometry y="30" width="140" height="30" as="geometry" />
        </mxCell>
        <mxCell id="H2WS7VCFzQZk60c3XtAe-21" value="name" style="text;strokeColor=none;fillColor=none;align=left;verticalAlign=middle;spacingLeft=4;spacingRight=4;overflow=hidden;points=[[0,0.5],[1,0.5]];portConstraint=eastwest;rotatable=0;whiteSpace=wrap;html=1;" vertex="1" parent="H2WS7VCFzQZk60c3XtAe-19">
          <mxGeometry y="60" width="140" height="30" as="geometry" />
        </mxCell>
        <mxCell id="H2WS7VCFzQZk60c3XtAe-23" value="level" style="swimlane;fontStyle=0;childLayout=stackLayout;horizontal=1;startSize=30;horizontalStack=0;resizeParent=1;resizeParentMax=0;resizeLast=0;collapsible=1;marginBottom=0;whiteSpace=wrap;html=1;" vertex="1" parent="1">
          <mxGeometry x="23" y="180" width="140" height="90" as="geometry" />
        </mxCell>
        <mxCell id="H2WS7VCFzQZk60c3XtAe-24" value="&lt;u&gt;code_level&lt;/u&gt;" style="text;strokeColor=none;fillColor=none;align=left;verticalAlign=middle;spacingLeft=4;spacingRight=4;overflow=hidden;points=[[0,0.5],[1,0.5]];portConstraint=eastwest;rotatable=0;whiteSpace=wrap;html=1;" vertex="1" parent="H2WS7VCFzQZk60c3XtAe-23">
          <mxGeometry y="30" width="140" height="30" as="geometry" />
        </mxCell>
        <mxCell id="H2WS7VCFzQZk60c3XtAe-25" value="name" style="text;strokeColor=none;fillColor=none;align=left;verticalAlign=middle;spacingLeft=4;spacingRight=4;overflow=hidden;points=[[0,0.5],[1,0.5]];portConstraint=eastwest;rotatable=0;whiteSpace=wrap;html=1;" vertex="1" parent="H2WS7VCFzQZk60c3XtAe-23">
          <mxGeometry y="60" width="140" height="30" as="geometry" />
        </mxCell>
        <mxCell id="H2WS7VCFzQZk60c3XtAe-42" style="edgeStyle=orthogonalEdgeStyle;rounded=0;orthogonalLoop=1;jettySize=auto;html=1;strokeColor=default;endArrow=none;endFill=0;exitX=1.002;exitY=0.365;exitDx=0;exitDy=0;exitPerimeter=0;entryX=-0.005;entryY=0.857;entryDx=0;entryDy=0;entryPerimeter=0;" edge="1" parent="1" source="H2WS7VCFzQZk60c3XtAe-3" target="H2WS7VCFzQZk60c3XtAe-20">
          <mxGeometry relative="1" as="geometry">
            <mxPoint x="583" y="450" as="targetPoint" />
            <Array as="points" />
          </mxGeometry>
        </mxCell>
        <mxCell id="H2WS7VCFzQZk60c3XtAe-44" style="rounded=0;orthogonalLoop=1;jettySize=auto;html=1;entryX=0;entryY=0.5;entryDx=0;entryDy=0;endArrow=none;endFill=0;" edge="1" parent="1" source="H2WS7VCFzQZk60c3XtAe-8" target="H2WS7VCFzQZk60c3XtAe-11">
          <mxGeometry relative="1" as="geometry" />
        </mxCell>
        <mxCell id="H2WS7VCFzQZk60c3XtAe-45" style="edgeStyle=orthogonalEdgeStyle;rounded=0;orthogonalLoop=1;jettySize=auto;html=1;entryX=0;entryY=0.5;entryDx=0;entryDy=0;endArrow=none;endFill=0;exitX=1;exitY=0.5;exitDx=0;exitDy=0;" edge="1" parent="1" source="H2WS7VCFzQZk60c3XtAe-61" target="H2WS7VCFzQZk60c3XtAe-8">
          <mxGeometry relative="1" as="geometry">
            <Array as="points">
              <mxPoint x="213" y="225" />
              <mxPoint x="213" y="225" />
            </Array>
          </mxGeometry>
        </mxCell>
        <mxCell id="H2WS7VCFzQZk60c3XtAe-50" value="BELONGS TO" style="rounded=1;whiteSpace=wrap;html=1;" vertex="1" parent="1">
          <mxGeometry x="503" y="434" width="120" height="32" as="geometry" />
        </mxCell>
        <mxCell id="H2WS7VCFzQZk60c3XtAe-51" value="0, n" style="text;html=1;align=center;verticalAlign=middle;resizable=0;points=[];autosize=1;strokeColor=none;fillColor=none;" vertex="1" parent="1">
          <mxGeometry x="448" y="426" width="40" height="30" as="geometry" />
        </mxCell>
        <mxCell id="H2WS7VCFzQZk60c3XtAe-52" value="0, n" style="text;html=1;align=center;verticalAlign=middle;resizable=0;points=[];autosize=1;strokeColor=none;fillColor=none;" vertex="1" parent="1">
          <mxGeometry x="630" y="426" width="40" height="30" as="geometry" />
        </mxCell>
        <mxCell id="H2WS7VCFzQZk60c3XtAe-54" value="" style="edgeStyle=orthogonalEdgeStyle;rounded=0;orthogonalLoop=1;jettySize=auto;html=1;entryX=0.5;entryY=0;entryDx=0;entryDy=0;endArrow=none;endFill=0;" edge="1" parent="1" source="H2WS7VCFzQZk60c3XtAe-6" target="H2WS7VCFzQZk60c3XtAe-53">
          <mxGeometry relative="1" as="geometry">
            <mxPoint x="383" y="270" as="sourcePoint" />
            <mxPoint x="383" y="380" as="targetPoint" />
          </mxGeometry>
        </mxCell>
        <mxCell id="H2WS7VCFzQZk60c3XtAe-53" value="COMPOSE" style="rounded=1;whiteSpace=wrap;html=1;" vertex="1" parent="1">
          <mxGeometry x="343" y="309" width="80" height="32" as="geometry" />
        </mxCell>
        <mxCell id="H2WS7VCFzQZk60c3XtAe-56" value="" style="rounded=0;orthogonalLoop=1;jettySize=auto;html=1;entryX=0;entryY=0.5;entryDx=0;entryDy=0;endArrow=none;endFill=0;exitX=0.996;exitY=0.338;exitDx=0;exitDy=0;exitPerimeter=0;" edge="1" parent="1" source="H2WS7VCFzQZk60c3XtAe-17" target="H2WS7VCFzQZk60c3XtAe-55">
          <mxGeometry relative="1" as="geometry">
            <mxPoint x="205" y="447" as="sourcePoint" />
            <mxPoint x="312" y="447" as="targetPoint" />
          </mxGeometry>
        </mxCell>
        <mxCell id="H2WS7VCFzQZk60c3XtAe-55" value="CREATE" style="rounded=1;whiteSpace=wrap;html=1;" vertex="1" parent="1">
          <mxGeometry x="202" y="434" width="80" height="32" as="geometry" />
        </mxCell>
        <mxCell id="H2WS7VCFzQZk60c3XtAe-57" value="1, 1" style="text;html=1;align=center;verticalAlign=middle;resizable=0;points=[];autosize=1;strokeColor=none;fillColor=none;" vertex="1" parent="1">
          <mxGeometry x="377" y="267" width="40" height="30" as="geometry" />
        </mxCell>
        <mxCell id="H2WS7VCFzQZk60c3XtAe-58" value="0, n" style="text;html=1;align=center;verticalAlign=middle;resizable=0;points=[];autosize=1;strokeColor=none;fillColor=none;" vertex="1" parent="1">
          <mxGeometry x="377" y="353" width="40" height="30" as="geometry" />
        </mxCell>
        <mxCell id="H2WS7VCFzQZk60c3XtAe-59" value="1, 1" style="text;html=1;align=center;verticalAlign=middle;resizable=0;points=[];autosize=1;strokeColor=none;fillColor=none;" vertex="1" parent="1">
          <mxGeometry x="281" y="418" width="40" height="30" as="geometry" />
        </mxCell>
        <mxCell id="H2WS7VCFzQZk60c3XtAe-60" value="0, n" style="text;html=1;align=center;verticalAlign=middle;resizable=0;points=[];autosize=1;strokeColor=none;fillColor=none;" vertex="1" parent="1">
          <mxGeometry x="160" y="420" width="40" height="30" as="geometry" />
        </mxCell>
        <mxCell id="H2WS7VCFzQZk60c3XtAe-62" value="" style="edgeStyle=orthogonalEdgeStyle;rounded=0;orthogonalLoop=1;jettySize=auto;html=1;entryX=0;entryY=0.5;entryDx=0;entryDy=0;endArrow=none;endFill=0;exitX=1;exitY=0.5;exitDx=0;exitDy=0;" edge="1" parent="1" source="H2WS7VCFzQZk60c3XtAe-24" target="H2WS7VCFzQZk60c3XtAe-61">
          <mxGeometry relative="1" as="geometry">
            <mxPoint x="163" y="225" as="sourcePoint" />
            <mxPoint x="313" y="225" as="targetPoint" />
            <Array as="points" />
          </mxGeometry>
        </mxCell>
        <mxCell id="H2WS7VCFzQZk60c3XtAe-61" value="HAS" style="rounded=1;whiteSpace=wrap;html=1;" vertex="1" parent="1">
          <mxGeometry x="212.5" y="209" width="53" height="32" as="geometry" />
        </mxCell>
        <mxCell id="H2WS7VCFzQZk60c3XtAe-63" value="1, 1" style="text;html=1;align=center;verticalAlign=middle;resizable=0;points=[];autosize=1;strokeColor=none;fillColor=none;" vertex="1" parent="1">
          <mxGeometry x="273" y="200" width="40" height="30" as="geometry" />
        </mxCell>
        <mxCell id="H2WS7VCFzQZk60c3XtAe-64" value="0, n" style="text;html=1;align=center;verticalAlign=middle;resizable=0;points=[];autosize=1;strokeColor=none;fillColor=none;" vertex="1" parent="1">
          <mxGeometry x="163" y="199" width="40" height="30" as="geometry" />
        </mxCell>
        <mxCell id="H2WS7VCFzQZk60c3XtAe-66" value="HAS" style="rounded=1;whiteSpace=wrap;html=1;" vertex="1" parent="1">
          <mxGeometry x="513" y="209" width="53" height="32" as="geometry" />
        </mxCell>
        <mxCell id="H2WS7VCFzQZk60c3XtAe-67" value="1, 1" style="text;html=1;align=center;verticalAlign=middle;resizable=0;points=[];autosize=1;strokeColor=none;fillColor=none;" vertex="1" parent="1">
          <mxGeometry x="580" y="198" width="40" height="30" as="geometry" />
        </mxCell>
        <mxCell id="H2WS7VCFzQZk60c3XtAe-68" value="0, n" style="text;html=1;align=center;verticalAlign=middle;resizable=0;points=[];autosize=1;strokeColor=none;fillColor=none;" vertex="1" parent="1">
          <mxGeometry x="448" y="199" width="40" height="30" as="geometry" />
        </mxCell>
        <mxCell id="H2WS7VCFzQZk60c3XtAe-69" value="VALIDATE" style="rounded=1;whiteSpace=wrap;html=1;" vertex="1" parent="1">
          <mxGeometry x="513" y="70" width="80" height="32" as="geometry" />
        </mxCell>
        <mxCell id="H2WS7VCFzQZk60c3XtAe-70" value="" style="endArrow=none;html=1;rounded=0;entryX=0;entryY=0.5;entryDx=0;entryDy=0;exitX=0.75;exitY=0;exitDx=0;exitDy=0;" edge="1" parent="1" source="H2WS7VCFzQZk60c3XtAe-6" target="H2WS7VCFzQZk60c3XtAe-69">
          <mxGeometry width="50" height="50" relative="1" as="geometry">
            <mxPoint x="443" y="210" as="sourcePoint" />
            <mxPoint x="493" y="160" as="targetPoint" />
          </mxGeometry>
        </mxCell>
        <mxCell id="H2WS7VCFzQZk60c3XtAe-71" value="" style="endArrow=none;html=1;rounded=0;entryX=1;entryY=0.5;entryDx=0;entryDy=0;exitX=0.5;exitY=0;exitDx=0;exitDy=0;" edge="1" parent="1" source="H2WS7VCFzQZk60c3XtAe-10" target="H2WS7VCFzQZk60c3XtAe-69">
          <mxGeometry width="50" height="50" relative="1" as="geometry">
            <mxPoint x="443" y="210" as="sourcePoint" />
            <mxPoint x="493" y="160" as="targetPoint" />
          </mxGeometry>
        </mxCell>
        <mxCell id="H2WS7VCFzQZk60c3XtAe-72" value="1, 1" style="text;html=1;align=center;verticalAlign=middle;resizable=0;points=[];autosize=1;strokeColor=none;fillColor=none;" vertex="1" parent="1">
          <mxGeometry x="397" y="120" width="40" height="30" as="geometry" />
        </mxCell>
        <mxCell id="H2WS7VCFzQZk60c3XtAe-73" value="0, 1" style="text;html=1;align=center;verticalAlign=middle;resizable=0;points=[];autosize=1;strokeColor=none;fillColor=none;" vertex="1" parent="1">
          <mxGeometry x="670" y="150" width="40" height="30" as="geometry" />
        </mxCell>
      </root>
    </mxGraphModel>
  </diagram>
</mxfile>
